<!-- by TradingView --><svg width="18" height="18" viewBox="0 0 18 18" xmlns="http://www.w3.org/2000/svg"><path fill="#0091BA" d="M0 0h18v18H0z"/><path d="M3.5 11.9h1.2V6.1H3.5L2 7.14v1.08l1.47-1h.03v4.68ZM8.27 12c1.46 0 2.35-1.15 2.35-3s-.89-3-2.35-3-2.35 1.15-2.35 3 .89 3 2.35 3Zm0-.97c-.72 0-1.13-.75-1.13-2.03 0-1.28.41-2.03 1.13-2.03S9.4 7.72 9.4 9V9c0 1.28-.41 2.03-1.13 2.03ZM13.65 12C15.1 12 16 10.85 16 9s-.89-3-2.35-3c-1.47 0-2.36 1.15-2.36 3s.9 3 2.36 3Zm0-.97c-.72 0-1.13-.75-1.13-2.03 0-1.28.4-2.03 1.13-2.03.72 0 1.13.75 1.13 2.02V9c0 1.28-.41 2.03-1.13 2.03Z" fill="#fff"/></svg>